<svg width="140" height="140" viewBox="0 0 140 140" fill="none" xmlns="http://www.w3.org/2000/svg">
<rect x="44" y="30" width="52" height="80" rx="26" stroke="url(#paint0_linear_69_1485)" stroke-width="8"/>
<rect x="56" y="42" width="28" height="56" rx="14" fill="url(#paint1_linear_69_1485)"/>
<rect x="67.7783" y="56" width="4.41249" height="21.1799" fill="#3CE1CD"/>
<path d="M60 72.4906L63.1201 69.3705L73.1044 79.3548L69.9843 82.4749L60 72.4906Z" fill="#3CE1CD"/>
<path d="M80 72.4906L76.8799 69.3705L66.8956 79.3548L70.0157 82.4749L80 72.4906Z" fill="#3CE1CD"/>
<path d="M65 18.3259C46.3762 20.7738 32 36.708 32 55.9999V73.9999H21" stroke="white" stroke-width="3" stroke-linecap="round" stroke-linejoin="round"/>
<path fill-rule="evenodd" clip-rule="evenodd" d="M70 23C72.7614 23 75 20.7614 75 18C75 15.2386 72.7614 13 70 13C67.2386 13 65 15.2386 65 18C65 20.7614 67.2386 23 70 23Z" stroke="white" stroke-width="3"/>
<path d="M75 121.674C93.6238 119.226 108 103.292 108 84.0001V66.0001H118" stroke="white" stroke-width="3" stroke-linecap="round" stroke-linejoin="round"/>
<path fill-rule="evenodd" clip-rule="evenodd" d="M70 117C67.2386 117 65 119.239 65 122C65 124.761 67.2386 127 70 127C72.7614 127 75 124.761 75 122C75 119.239 72.7614 117 70 117Z" stroke="white" stroke-width="3"/>
<rect opacity="0.1" x="17" y="108.876" width="10.381" height="10.381" transform="rotate(-90 17 108.876)" fill="#3CE1CD"/>
<rect opacity="0.1" x="11" y="93.381" width="10.381" height="10.381" transform="rotate(-90 11 93.381)" fill="#3CE1CD"/>
<rect opacity="0.4" x="30.4951" y="108.876" width="10.381" height="10.381" transform="rotate(-90 30.4951 108.876)" fill="#3CE1CD"/>
<rect opacity="0.4" x="24.4951" y="93.381" width="10.381" height="10.381" transform="rotate(-90 24.4951 93.381)" fill="#3CE1CD"/>
<rect opacity="0.7" x="43.9902" y="108.876" width="10.381" height="10.381" transform="rotate(-90 43.9902 108.876)" fill="#3CE1CD"/>
<rect opacity="0.7" x="37.9902" y="93.381" width="10.381" height="10.381" transform="rotate(-90 37.9902 93.381)" fill="#3CE1CD"/>
<rect x="57.4854" y="108.876" width="10.381" height="10.381" transform="rotate(-90 57.4854 108.876)" fill="#3CE1CD"/>
<rect x="51.4854" y="93.381" width="10.381" height="10.381" transform="rotate(-90 51.4854 93.381)" fill="#3CE1CD"/>
<defs>
<linearGradient id="paint0_linear_69_1485" x1="70" y1="30" x2="70" y2="110" gradientUnits="userSpaceOnUse">
<stop stop-color="#3873FF"/>
<stop offset="1" stop-color="#3873FF" stop-opacity="0"/>
</linearGradient>
<linearGradient id="paint1_linear_69_1485" x1="70" y1="42" x2="70" y2="98" gradientUnits="userSpaceOnUse">
<stop stop-color="#3873FF"/>
<stop offset="1" stop-color="#3873FF" stop-opacity="0"/>
</linearGradient>
</defs>
</svg>
