<svg width="140" height="140" viewBox="0 0 140 140" fill="none" xmlns="http://www.w3.org/2000/svg">
<path fill-rule="evenodd" clip-rule="evenodd" d="M71.9408 74C76.4264 61.7457 88.1919 53 102 53V85C102 102.673 87.6731 117 70 117V92L87 74H71.9408Z" fill="url(#paint0_linear_69_1552)"/>
<path fill-rule="evenodd" clip-rule="evenodd" d="M70 92V117C52.3269 117 38 102.673 38 85V53C51.8081 53 63.5736 61.7457 68.0592 74H53L70 92Z" fill="#3873FF"/>
<rect opacity="0.1" x="55" y="8" width="12" height="12" fill="#3CE1CD"/>
<rect opacity="0.1" x="73" y="8" width="12" height="12" fill="#3CE1CD"/>
<rect opacity="0.4" x="55" y="23" width="12" height="12" fill="#3CE1CD"/>
<rect opacity="0.4" x="73" y="23" width="12" height="12" fill="#3CE1CD"/>
<rect opacity="0.7" x="55" y="38" width="12" height="12" fill="#3CE1CD"/>
<rect opacity="0.7" x="73" y="38" width="12" height="12" fill="#3CE1CD"/>
<rect x="55" y="53" width="12" height="12" fill="#3CE1CD"/>
<rect x="73" y="53" width="12" height="12" fill="#3CE1CD"/>
<path d="M113 73.5V86.8809C113 109.738 93.7482 128.267 70 128.267C46.2518 128.267 27 109.738 27 86.8809V38" stroke="white" stroke-width="3" stroke-linecap="round" stroke-linejoin="round"/>
<path fill-rule="evenodd" clip-rule="evenodd" d="M27 37.5C24.2386 37.5 22 35.2614 22 32.5C22 29.7386 24.2386 27.5 27 27.5C29.7614 27.5 32 29.7386 32 32.5C32 35.2614 29.7614 37.5 27 37.5Z" stroke="white" stroke-width="3"/>
<path fill-rule="evenodd" clip-rule="evenodd" d="M113 72C110.239 72 108 69.7614 108 67C108 64.2386 110.239 62 113 62C115.761 62 118 64.2386 118 67C118 69.7614 115.761 72 113 72Z" stroke="white" stroke-width="3"/>
<defs>
<linearGradient id="paint0_linear_69_1552" x1="86" y1="53" x2="86" y2="117" gradientUnits="userSpaceOnUse">
<stop stop-color="#3873FF"/>
<stop offset="1" stop-color="#3873FF" stop-opacity="0"/>
</linearGradient>
</defs>
</svg>
