<svg width="212" height="164" viewBox="0 0 212 164" fill="none" xmlns="http://www.w3.org/2000/svg">
<path fill-rule="evenodd" clip-rule="evenodd" d="M135 63H77V101H92V95.6986C92 90.3424 96.4198 86 101.875 86H110.123C115.576 86 119.998 90.3424 119.998 95.6986L120 101H135V63ZM106 83C109.866 83 113 79.8655 113 75.9992C113 72.1328 109.866 69 106 69C102.134 69 99 72.1327 99 75.9992C99 79.8657 102.134 83 106 83Z" fill="url(#paint0_linear_69_1528)"/>
<path d="M69 84V55H117V49.5" stroke="white" stroke-width="3" stroke-linecap="round" stroke-linejoin="round"/>
<path d="M143 80V109H95V114.5" stroke="white" stroke-width="3" stroke-linecap="round" stroke-linejoin="round"/>
<path fill-rule="evenodd" clip-rule="evenodd" d="M117 49C114.239 49 112 46.7614 112 44C112 41.2386 114.239 39 117 39C119.761 39 122 41.2386 122 44C122 46.7614 119.761 49 117 49Z" stroke="white" stroke-width="3"/>
<path fill-rule="evenodd" clip-rule="evenodd" d="M95 125C92.2386 125 90 122.761 90 120C90 117.239 92.2386 115 95 115C97.7614 115 100 117.239 100 120C100 122.761 97.7614 125 95 125Z" stroke="white" stroke-width="3"/>
<path d="M59 113V129H75" stroke="#3873FF" stroke-width="4"/>
<path d="M153 113V129H137" stroke="#3873FF" stroke-width="4"/>
<path d="M59 51V35H75" stroke="#3873FF" stroke-width="4"/>
<path d="M153 51V35H137" stroke="#3873FF" stroke-width="4"/>
<rect opacity="0.1" x="110" y="69.381" width="10.381" height="10.381" transform="rotate(-90 110 69.381)" fill="#3CE1CD"/>
<rect opacity="0.4" x="123.381" y="69.381" width="10.381" height="10.381" transform="rotate(-90 123.381 69.381)" fill="#3CE1CD"/>
<rect opacity="0.7" x="136.762" y="69.381" width="10.381" height="10.381" transform="rotate(-90 136.762 69.381)" fill="#3CE1CD"/>
<rect x="150.143" y="69.381" width="10.381" height="10.381" transform="rotate(-90 150.143 69.381)" fill="#3CE1CD"/>
<rect opacity="0.1" x="101.523" y="95" width="10.381" height="10.381" transform="rotate(90 101.523 95)" fill="#3CE1CD"/>
<rect opacity="0.4" x="88.1426" y="95" width="10.381" height="10.381" transform="rotate(90 88.1426 95)" fill="#3CE1CD"/>
<rect opacity="0.7" x="74.7617" y="95" width="10.381" height="10.381" transform="rotate(90 74.7617 95)" fill="#3CE1CD"/>
<rect x="61.3809" y="95" width="10.381" height="10.381" transform="rotate(90 61.3809 95)" fill="#3CE1CD"/>
<defs>
<linearGradient id="paint0_linear_69_1528" x1="106" y1="63" x2="106" y2="101" gradientUnits="userSpaceOnUse">
<stop stop-color="#3873FF"/>
<stop offset="1" stop-color="#3873FF" stop-opacity="0"/>
</linearGradient>
</defs>
</svg>
