<svg width="140" height="140" viewBox="0 0 140 140" fill="none" xmlns="http://www.w3.org/2000/svg">
<path fill-rule="evenodd" clip-rule="evenodd" d="M26.457 55.4095H72.1332V123.924H26.457V55.4095ZM30.6094 59.5619H67.9808V111.467H30.6094V59.5619ZM53.4475 117.695C53.4475 119.989 51.5884 121.848 49.2951 121.848C47.0018 121.848 45.1427 119.989 45.1427 117.695C45.1427 115.402 47.0018 113.543 49.2951 113.543C51.5884 113.543 53.4475 115.402 53.4475 117.695Z" fill="#3873FF"/>
<path fill-rule="evenodd" clip-rule="evenodd" d="M114.695 54.9999V92.819H60.0283V47.1428H105.5L114.695 54.9999ZM91.9998 52.9999H94.9998V59.9999H91.9998V52.9999ZM101 52.9999H97.9998V59.9999H101V52.9999ZM85.9998 52.9999H88.9998V59.9999H85.9998V52.9999ZM108 62.9999H85.9998V74.9999H108V62.9999Z" fill="url(#paint0_linear_69_1593)"/>
<path d="M77.3242 28.9V39.3191H123V101.605H84.0718V117.176H95.6052" stroke="white" stroke-width="3" stroke-linecap="round" stroke-linejoin="round"/>
<path fill-rule="evenodd" clip-rule="evenodd" d="M77.5 28C74.7386 28 72.5 25.7614 72.5 23C72.5 20.2386 74.7386 18 77.5 18C80.2614 18 82.5 20.2386 82.5 23C82.5 25.7614 80.2614 28 77.5 28Z" stroke="white" stroke-width="3"/>
<path fill-rule="evenodd" clip-rule="evenodd" d="M101.429 121.986C98.6673 121.986 96.4287 119.747 96.4287 116.986C96.4287 114.224 98.6673 111.986 101.429 111.986C104.19 111.986 106.429 114.224 106.429 116.986C106.429 119.747 104.19 121.986 101.429 121.986Z" stroke="white" stroke-width="3"/>
<rect opacity="0.1" x="22" y="22" width="12" height="12" fill="#3CE1CD"/>
<rect opacity="0.1" x="40" y="22" width="12" height="12" fill="#3CE1CD"/>
<rect opacity="0.4" x="22" y="37" width="12" height="12" fill="#3CE1CD"/>
<rect opacity="0.4" x="40" y="37" width="12" height="12" fill="#3CE1CD"/>
<rect opacity="0.7" x="22" y="52" width="12" height="12" fill="#3CE1CD"/>
<rect opacity="0.7" x="40" y="52" width="12" height="12" fill="#3CE1CD"/>
<rect x="22" y="67" width="12" height="12" fill="#3CE1CD"/>
<rect x="40" y="67" width="12" height="12" fill="#3CE1CD"/>
<defs>
<linearGradient id="paint0_linear_69_1593" x1="87.3617" y1="47.1428" x2="87.3617" y2="92.819" gradientUnits="userSpaceOnUse">
<stop stop-color="#3873FF"/>
<stop offset="1" stop-color="#3873FF" stop-opacity="0"/>
</linearGradient>
</defs>
</svg>
