<svg width="140" height="140" viewBox="0 0 140 140" fill="none" xmlns="http://www.w3.org/2000/svg">
<circle cx="69.9999" cy="69" r="36.4286" stroke="url(#paint0_linear_69_1377)" stroke-width="5"/>
<path opacity="0.3" fill-rule="evenodd" clip-rule="evenodd" d="M52.9824 44.7005C54.3893 43.7136 55.8863 42.8454 57.4589 42.1108L59.6614 46.8259C58.3659 47.431 57.1317 48.1466 55.971 48.9609L52.9824 44.7005Z" fill="#3CE1CD"/>
<path opacity="0.4" fill-rule="evenodd" clip-rule="evenodd" d="M43.1113 56.4593C43.8459 54.8867 44.7141 53.3897 45.701 51.9828L49.9613 54.9714C49.1471 56.1321 48.4315 57.3663 47.8264 58.6617L43.1113 56.4593Z" fill="#3CE1CD"/>
<path opacity="0.6" fill-rule="evenodd" clip-rule="evenodd" d="M45.701 86.017C44.7141 84.6101 43.8459 83.1131 43.1113 81.5405L47.8264 79.338C48.4315 80.6335 49.1471 81.8676 49.9613 83.0283L45.701 86.017Z" fill="#3CE1CD"/>
<path opacity="0.5" fill-rule="evenodd" clip-rule="evenodd" d="M40.3369 68.9999C40.3369 68.1298 40.3745 67.2678 40.4481 66.4155L45.6329 66.8635C45.5721 67.567 45.541 68.2795 45.541 68.9999C45.541 69.7204 45.5721 70.4329 45.6329 71.1363L40.4481 71.5843C40.3745 70.7321 40.3369 69.8701 40.3369 68.9999Z" fill="#3CE1CD"/>
<path opacity="0.7" fill-rule="evenodd" clip-rule="evenodd" d="M57.4589 95.889C55.8863 95.1544 54.3893 94.2862 52.9824 93.2993L55.971 89.0389C57.1317 89.8532 58.3659 90.5688 59.6614 91.1739L57.4589 95.889Z" fill="#3CE1CD"/>
<path opacity="0.8" fill-rule="evenodd" clip-rule="evenodd" d="M70.0004 98.6631C69.1303 98.6631 68.2683 98.6256 67.416 98.5519L67.864 93.3672C68.5675 93.428 69.28 93.459 70.0004 93.459C70.7208 93.459 71.4334 93.428 72.1368 93.3672L72.5848 98.5519C71.7326 98.6256 70.8706 98.6631 70.0004 98.6631Z" fill="#3CE1CD"/>
<path opacity="0.9" fill-rule="evenodd" clip-rule="evenodd" d="M87.0168 93.2993C85.6099 94.2862 84.1129 95.1544 82.5403 95.889L80.3379 91.1739C81.6334 90.5688 82.8675 89.8532 84.0282 89.0389L87.0168 93.2993Z" fill="#3CE1CD"/>
<path fill-rule="evenodd" clip-rule="evenodd" d="M96.8891 81.5405C96.1545 83.1131 95.2863 84.6101 94.2994 86.017L90.0391 83.0283C90.8533 81.8676 91.5689 80.6335 92.174 79.338L96.8891 81.5405Z" fill="#3CE1CD"/>
<path fill-rule="evenodd" clip-rule="evenodd" d="M70 63.7959C72.8741 63.7959 75.2041 66.1259 75.2041 69C75.2041 71.8742 72.8741 74.2041 70 74.2041C67.1258 74.2041 64.7959 71.8742 64.7959 69C64.7959 66.1259 67.1258 63.7959 70 63.7959Z" stroke="white" stroke-width="3"/>
<path fill-rule="evenodd" clip-rule="evenodd" d="M62.7144 18C61.5648 18 60.6328 18.932 60.6328 20.0816V26.3265H66.8777V32.051H73.1226V26.3265H79.3675V20.0816C79.3675 18.932 78.4355 18 77.2859 18H62.7144Z" fill="#3873FF"/>
<path d="M75.2041 68.9999H97.0612C97.0612 56.5101 87.6939 42.4591 70 41.9387" stroke="white" stroke-width="3"/>
<path d="M28.8868 38.8163C22.6718 47.2676 19 57.705 19 69C19 93.0442 35.639 113.202 58.0306 118.588H19M111.113 38.8163C117.328 47.2676 121 57.705 121 69C121 93.0442 104.361 113.202 81.9694 118.588H121" stroke="white" stroke-width="3" stroke-linecap="round" stroke-linejoin="round"/>
<path fill-rule="evenodd" clip-rule="evenodd" d="M32.5303 39.8571C29.6562 39.8571 27.3262 37.5272 27.3262 34.6531C27.3262 31.7789 29.6562 29.449 32.5303 29.449C35.4044 29.449 37.7344 31.7789 37.7344 34.6531C37.7344 37.5272 35.4044 39.8571 32.5303 39.8571Z" stroke="white" stroke-width="3"/>
<path fill-rule="evenodd" clip-rule="evenodd" d="M107.47 29.449C110.344 29.449 112.674 31.779 112.674 34.6531C112.674 37.5272 110.344 39.8572 107.47 39.8572C104.596 39.8572 102.266 37.5272 102.266 34.6531C102.266 31.779 104.596 29.449 107.47 29.449Z" stroke="white" stroke-width="3"/>
<defs>
<linearGradient id="paint0_linear_69_1377" x1="69.9999" y1="32.5714" x2="69.9999" y2="105.429" gradientUnits="userSpaceOnUse">
<stop stop-color="#3873FF"/>
<stop offset="1" stop-color="#3873FF" stop-opacity="0"/>
</linearGradient>
</defs>
</svg>
