<svg width="140" height="140" viewBox="0 0 140 140" fill="none" xmlns="http://www.w3.org/2000/svg">
<g id="icon_03">
<g id="Group">
<path id="Subtract" fill-rule="evenodd" clip-rule="evenodd" d="M70.5 107C90.1061 107 106 91.1061 106 71.5C106 51.8939 90.1061 36 70.5 36C50.8939 36 35 51.8939 35 71.5C35 91.1061 50.8939 107 70.5 107ZM70 95C83.2548 95 94 84.2548 94 71C94 57.7452 83.2548 47 70 47C56.7452 47 46 57.7452 46 71C46 84.2548 56.7452 95 70 95Z" fill="url(#paint0_linear_91_356)"/>
<circle id="Ellipse" cx="70.5" cy="71.5" r="47.5" stroke="#3873FF" stroke-width="4"/>
</g>
<circle id="Ellipse_2" cx="70" cy="71" r="16" fill="url(#paint1_linear_91_356)"/>
<g id="Group_2">
<path id="Shape" d="M74 67.5196L109.17 32.3499" stroke="#012E8B" stroke-width="3" stroke-linecap="round"/>
<path id="Oval" fill-rule="evenodd" clip-rule="evenodd" d="M70 75.8499C67.2386 75.8499 65 73.6113 65 70.8499C65 68.0884 67.2386 65.8499 70 65.8499C72.7614 65.8499 75 68.0884 75 70.8499C75 73.6113 72.7614 75.8499 70 75.8499Z" stroke="#012E8B" stroke-width="3"/>
<path id="Shape_2" fill-rule="evenodd" clip-rule="evenodd" d="M119.052 32.8517H108.85V22.6501L116.5 15V25.2016H126.706L119.052 32.8517Z" stroke="#012E8B" stroke-width="3" stroke-linejoin="round"/>
</g>
<g id="Group_3">
<rect id="Rectangle" opacity="0.1" x="15" y="110.876" width="10.381" height="10.381" transform="rotate(-90 15 110.876)" fill="#3CE1CD"/>
<rect id="Rectangle_2" opacity="0.1" x="9" y="95.3809" width="10.381" height="10.381" transform="rotate(-90 9 95.3809)" fill="#3CE1CD"/>
<rect id="Rectangle_3" opacity="0.4" x="28.4952" y="110.876" width="10.381" height="10.381" transform="rotate(-90 28.4952 110.876)" fill="#3CE1CD"/>
<rect id="Rectangle_4" opacity="0.4" x="22.4952" y="95.3809" width="10.381" height="10.381" transform="rotate(-90 22.4952 95.3809)" fill="#3CE1CD"/>
<rect id="Rectangle_5" opacity="0.7" x="41.9905" y="110.876" width="10.381" height="10.381" transform="rotate(-90 41.9905 110.876)" fill="#3CE1CD"/>
<rect id="Rectangle_6" opacity="0.7" x="35.9905" y="95.3809" width="10.381" height="10.381" transform="rotate(-90 35.9905 95.3809)" fill="#3CE1CD"/>
<rect id="Rectangle_7" x="55.4857" y="110.876" width="10.381" height="10.381" transform="rotate(-90 55.4857 110.876)" fill="#3CE1CD"/>
<rect id="Rectangle_8" x="49.4857" y="95.3809" width="10.381" height="10.381" transform="rotate(-90 49.4857 95.3809)" fill="#3CE1CD"/>
</g>
</g>
<defs>
<linearGradient id="paint0_linear_91_356" x1="70.5" y1="36" x2="70.5" y2="107" gradientUnits="userSpaceOnUse">
<stop stop-color="#3873FF"/>
<stop offset="1" stop-color="#3873FF" stop-opacity="0"/>
</linearGradient>
<linearGradient id="paint1_linear_91_356" x1="70" y1="55" x2="70" y2="87" gradientUnits="userSpaceOnUse">
<stop stop-color="#3873FF"/>
<stop offset="1" stop-color="#3873FF" stop-opacity="0"/>
</linearGradient>
</defs>
</svg>
