<svg width="114" height="141" viewBox="0 0 114 141" fill="none" xmlns="http://www.w3.org/2000/svg">
<g id="icon_11" clip-path="url(#clip0_91_406)">
<rect id="Rectangle" x="18" y="44" width="64.7246" height="44.6377" stroke="url(#paint0_linear_91_406)" stroke-width="4"/>
<rect id="Rectangle_2" x="30.2754" y="58.5072" width="64.7246" height="44.6377" fill="url(#paint1_linear_91_406)"/>
<path id="Shape" fill-rule="evenodd" clip-rule="evenodd" d="M72.6945 88.7422L69.8853 85.9169L74.8745 80.8989L69.8444 75.8399L72.6535 73.0145L80.4929 80.8989L72.6945 88.7422ZM52.5813 88.7422L44.7827 80.8989L52.6222 73.0146L55.4314 75.8399L50.4013 80.8989L55.3905 85.9169L52.5813 88.7422ZM58.4713 88.7439H62.4032L66.3351 73.0145H62.4615L58.4713 88.7439Z" fill="#3CE1CD"/>
<circle id="Ellipse" cx="26.5" cy="52.5" r="2.5" fill="#3873FF"/>
<circle id="Ellipse_2" cx="33.5" cy="52.5" r="2.5" fill="#3873FF"/>
<circle id="Ellipse_3" cx="40.5" cy="52.5" r="2.5" fill="#3873FF"/>
<g id="Group">
<path id="Vector" d="M6 81V115H40" stroke="#012E8B" stroke-width="3" stroke-linecap="round" stroke-linejoin="round"/>
<path id="Oval" fill-rule="evenodd" clip-rule="evenodd" d="M45 120C42.2386 120 40 117.761 40 115C40 112.239 42.2386 110 45 110C47.7614 110 50 112.239 50 115C50 117.761 47.7614 120 45 120Z" stroke="#012E8B" stroke-width="3"/>
<path id="Oval_2" fill-rule="evenodd" clip-rule="evenodd" d="M6 81C3.23858 81 1 78.7614 1 76C1 73.2386 3.23858 71 6 71C8.76142 71 11 73.2386 11 76C11 78.7614 8.76142 81 6 81Z" stroke="#012E8B" stroke-width="3"/>
</g>
<g id="Group_2">
<path id="Vector_2" d="M108 61V27H74" stroke="#012E8B" stroke-width="3" stroke-linecap="round" stroke-linejoin="round"/>
<path id="Oval_3" fill-rule="evenodd" clip-rule="evenodd" d="M69 22C71.7614 22 74 24.2386 74 27C74 29.7614 71.7614 32 69 32C66.2386 32 64 29.7614 64 27C64 24.2386 66.2386 22 69 22Z" stroke="#012E8B" stroke-width="3"/>
<path id="Oval_4" fill-rule="evenodd" clip-rule="evenodd" d="M108 61C110.761 61 113 63.2386 113 66C113 68.7614 110.761 71 108 71C105.239 71 103 68.7614 103 66C103 63.2386 105.239 61 108 61Z" stroke="#012E8B" stroke-width="3"/>
</g>
<g id="Group_3">
<rect id="Rectangle_3" opacity="0.1" width="10.381" height="10.381" transform="matrix(0 -1 -1 0 112.524 120.381)" fill="#3CE1CD"/>
<rect id="Rectangle_4" opacity="0.4" width="10.381" height="10.381" transform="matrix(0 -1 -1 0 99.1431 120.381)" fill="#3CE1CD"/>
<rect id="Rectangle_5" opacity="0.7" width="10.381" height="10.381" transform="matrix(0 -1 -1 0 85.762 120.381)" fill="#3CE1CD"/>
<rect id="Rectangle_6" width="10.381" height="10.381" transform="matrix(0 -1 -1 0 72.3809 120.381)" fill="#3CE1CD"/>
</g>
<g id="Group_4">
<g id="Group_5">
<rect id="Rectangle_7" opacity="0.1" width="10.381" height="10.381" transform="matrix(0 1 1 0 1 22)" fill="#3CE1CD"/>
<rect id="Rectangle_8" opacity="0.4" width="10.381" height="10.381" transform="matrix(0 1 1 0 14.3809 22)" fill="#3CE1CD"/>
<rect id="Rectangle_9" opacity="0.7" width="10.381" height="10.381" transform="matrix(0 1 1 0 27.762 22)" fill="#3CE1CD"/>
<rect id="Rectangle_10" width="10.381" height="10.381" transform="matrix(0 1 1 0 41.1431 22)" fill="#3CE1CD"/>
</g>
</g>
</g>
<defs>
<linearGradient id="paint0_linear_91_406" x1="50.3623" y1="44" x2="50.3623" y2="88.6377" gradientUnits="userSpaceOnUse">
<stop stop-color="#3873FF"/>
<stop offset="1" stop-color="#3873FF" stop-opacity="0"/>
</linearGradient>
<linearGradient id="paint1_linear_91_406" x1="62.6377" y1="58.5072" x2="62.6377" y2="103.145" gradientUnits="userSpaceOnUse">
<stop stop-color="#3873FF"/>
<stop offset="1" stop-color="#3873FF" stop-opacity="0"/>
</linearGradient>
<clipPath id="clip0_91_406">
<rect width="114" height="141" fill="white"/>
</clipPath>
</defs>
</svg>
